<svg width="123" height="127" viewBox="0 0 123 127" fill="none" xmlns="http://www.w3.org/2000/svg">
<path d="M9.21211 0.291016H0V103.858H9.21211V0.291016Z" fill="#FFFFFF"/>
<path d="M109.291 126.888H122.272L47.179 51.7953L98.5436 0.291016H85.563L34.0586 51.7953L109.291 126.888Z" fill="#FFFFFF"/>
<path d="M23.0345 103.858V60.3095L89.7528 126.888H102.733L27.501 51.7953L79.0052 0.291016H65.8849L23.0345 43.1415V0.291016H13.8223V103.858H23.0345Z" fill="#FFFFFF"/>
<path d="M87.723 42.7507C85.0782 39.876 81.2836 38.0361 77.1439 38.0361C72.8892 38.0361 69.0945 39.876 66.5647 42.7507C64.3799 45.2805 63 48.6153 63 52.18C63 56.4346 64.8398 60.1143 67.7146 62.7591C69.7844 64.599 72.4292 65.8638 75.3039 66.3238C75.8789 66.4388 76.5689 66.4388 77.2589 66.4388C77.9488 66.4388 78.5237 66.4388 79.2136 66.3238C82.0884 65.9788 84.7332 64.714 86.803 62.7591C89.6778 60.1143 91.5177 56.4346 91.5177 52.18C91.2877 48.6153 89.9078 45.2805 87.723 42.7507Z" fill="#FFFFFF"/>
<path d="M118.205 42.7507C115.561 39.876 111.766 38.0361 107.626 38.0361C103.372 38.0361 99.5769 39.876 97.0471 42.7507C94.8623 45.2805 93.4824 48.6153 93.4824 52.18C93.4824 56.4346 95.3222 60.1143 98.197 62.7591C100.267 64.599 102.912 65.8638 105.786 66.3238C106.361 66.4388 107.051 66.4388 107.741 66.4388C108.431 66.4388 109.006 66.4388 109.696 66.3238C112.571 65.9788 115.216 64.714 117.285 62.7591C120.16 60.1143 122 56.4346 122 52.18C121.77 48.6153 120.39 45.2805 118.205 42.7507Z" fill="#FFFFFF"/>
</svg>
